<svg xmlns="http://www.w3.org/2000/svg" xmlns:xlink="http://www.w3.org/1999/xlink" width="80" height="101" viewBox="0 0 80 101"><g id="Star.svg"><path fill="#FFFAE3" d="M40.24700164794922,12.134000778198242L43.90599822998047,44.90599822998047L68.5479965209961,49.625999450683594L44.2400016784668,53.23899841308594L40.24700164794922,89.86000061035156L36.24100112915039,53.90399932861328L11.947999954223633,49.625999450683594L35.90700149536133,44.571998596191406L40.24700164794922,12.134000778198242z" points="56.247 24.134 59.906 56.906 84.548 61.626 60.24 65.239 56.247 101.86 52.241 65.904 27.948 61.626 51.907 56.572"/><path fill="none" stroke="#00559B" stroke-width="2.5" d="M40.24700164794922,12.134000778198242L43.90599822998047,44.90599822998047L68.5479965209961,49.625999450683594L44.2400016784668,53.23899841308594L40.24700164794922,89.86000061035156L36.24100112915039,53.90399932861328L11.947999954223633,49.625999450683594L35.90700149536133,44.571998596191406L40.24700164794922,12.134000778198242z" points="56.247 24.134 59.906 56.906 84.548 61.626 60.24 65.239 56.247 101.86 52.241 65.904 27.948 61.626 51.907 56.572"/></g></svg>