<svg xmlns="http://www.w3.org/2000/svg" xmlns:xlink="http://www.w3.org/1999/xlink" width="48" height="27" x="0" y="0" enable-background="new 0 0 48 27" version="1.1" viewBox="0 0 48 27" xml:space="preserve"><g id="Layer_2"><g><g><path fill="#A8721B" d="M48,14c0,7.15-5.85,13-13,13H13C5.85,27,0,21.15,0,14v-1C0,5.85,5.85,0,13,0h22c7.15,0,13,5.85,13,13V14z"/></g><g><linearGradient id="SVGID_1_" x1="24" x2="24" y1="26.75" y2=".481" gradientUnits="userSpaceOnUse"><stop offset=".006" style="stop-color:#fbc926"/><stop offset="1" style="stop-color:#fffbcc"/></linearGradient><path fill="url(#SVGID_1_)" d="M13,26C6.4,26,1,20.6,1,14v-1C1,6.4,6.4,1,13,1h22c6.6,0,12,5.4,12,12v1c0,6.6-5.4,12-12,12H13z"/></g><polygon fill="#A8721B" points="31.233 9.27 23.896 19.781 16.559 9.27"/></g></g></svg>