<svg xmlns="http://www.w3.org/2000/svg" xmlns:xlink="http://www.w3.org/1999/xlink" width="36" height="20" x="0" y="0" enable-background="new 0 0 36 20" version="1.1" viewBox="0 0 36 20" xml:space="preserve"><g id="Layer_2"><g><g><path fill="#A8721B" d="M36,10c0,5.5-4.5,10-10,10H10C4.5,20,0,15.5,0,10l0,0C0,4.5,4.5,0,10,0h16C31.5,0,36,4.5,36,10L36,10z"/></g><g><linearGradient id="SVGID_1_" x1="18" x2="18" y1="1.09" y2="18.706" gradientUnits="userSpaceOnUse"><stop offset="0" style="stop-color:#fffbcc"/><stop offset=".994" style="stop-color:#fbc926"/></linearGradient><path fill="url(#SVGID_1_)" d="M10,19c-4.95,0-9-4.05-9-9l0,0c0-4.95,4.05-9,9-9h16c4.95,0,9,4.05,9,9l0,0c0,4.95-4.05,9-9,9H10z"/></g><polygon fill="#A8721B" points="23.233 6.27 17.896 14.781 12.559 6.27"/></g></g></svg>