<svg xmlns="http://www.w3.org/2000/svg" xmlns:xlink="http://www.w3.org/1999/xlink" id="Layer_1" width="52" height="40" x="0" y="0" enable-background="new 0 0 52 40" version="1.1" viewBox="0 0 52 40" xml:space="preserve"><g id="Layer_1_1_"><g><path fill="#DFDCD7" d="M8,39c-3.3,0-6-2.7-6-6V7c0-3.3,2.7-6,6-6h36c3.3,0,6,2.7,6,6v26c0,3.3-2.7,6-6,6H8z"/><path fill="#FFF" d="M44,2H8C5.25,2,3,4.25,3,7v1c0-2.75,2.25-5,5-5h36c2.75,0,5,2.25,5,5V7C49,4.25,46.75,2,44,2z"/><linearGradient id="SVGID_1_" x1="26" x2="26" y1="7" y2="39.23" gradientTransform="matrix(1 0 0 -1 0 41)" gradientUnits="userSpaceOnUse"><stop offset="0" style="stop-color:#f3f0eb"/><stop offset="1" style="stop-color:#faf7f2"/></linearGradient><path fill="url(#SVGID_1_)" d="M44,3H8C5.25,3,3,5.25,3,8v21c0,2.75,2.25,5,5,5h36c2.75,0,5-2.25,5-5V8C49,5.25,46.75,3,44,3z"/><linearGradient id="SVGID_2_" x1="26" x2="26" y1="6" y2="38.23" gradientTransform="matrix(1 0 0 -1 0 41)" gradientUnits="userSpaceOnUse"><stop offset="0" style="stop-color:#f3f0eb"/><stop offset="1" style="stop-color:#faf7f2"/></linearGradient><path fill="url(#SVGID_2_)" d="M44,3H8C5.25,3,3,5.25,3,8v21c0,2.75,2.25,5,5,5h36c2.75,0,5-2.25,5-5V8C49,5.25,46.75,3,44,3z"/><path fill="#FFF" d="M8,34h36c2.75,0,5-2.25,5-5v-1c0,2.75-2.25,5-5,5H8c-2.75,0-5-2.25-5-5v1C3,31.75,5.25,34,8,34z"/></g></g></svg>