<svg xmlns="http://www.w3.org/2000/svg" xmlns:xlink="http://www.w3.org/1999/xlink" width="60" height="58" x="0" y="0" enable-background="new 0 0 60 58" version="1.1" viewBox="0 0 60 58" xml:space="preserve"><g id="Pressed_states" display="none"><g display="inline"><g><g><path fill="#FA0" d="M56.876,8.608c0-2.966-2.507-5.367-5.6-5.367H8.716c-3.093,0-5.6,2.401-5.6,5.367v40.787 c0,2.964,2.507,5.365,5.6,5.365h42.561c3.093,0,5.6-2.401,5.6-5.365V8.608z"/></g><defs><filter id="Adobe_OpacityMaskFilter" width="53.76" height="51.52" x="3.116" y="3.241" filterUnits="userSpaceOnUse"><feColorMatrix color-interpolation-filters="sRGB" result="source" type="matrix" values="-1 0 0 0 1 0 -1 0 0 1 0 0 -1 0 1 0 0 0 1 0"/></filter></defs><mask id="SVGID_2_" width="53.76" height="51.52" x="3.116" y="3.241" maskUnits="userSpaceOnUse"><g filter="url(#Adobe_OpacityMaskFilter)"><image width="58" height="56" overflow="visible" transform="matrix(1 0 0 1 1.1064 1.1406)" xlink:href="A0744C.jpg"/></g></mask><g mask="url(#SVGID_2_)" opacity=".31"><path d="M56.876,8.608c0-2.966-2.507-5.367-5.6-5.367H8.716c-3.093,0-5.6,2.401-5.6,5.367v40.787c0,2.964,2.507,5.365,5.6,5.365 h42.561c3.093,0,5.6-2.401,5.6-5.365V8.608z"/></g></g><linearGradient id="SVGID_4_" x1="29.996" x2="29.996" y1="56.161" y2="2.075" gradientUnits="userSpaceOnUse"><stop offset="0" style="stop-color:#fff"/><stop offset=".231" style="stop-color:#fbfbfb"/><stop offset=".46" style="stop-color:#efefef"/><stop offset=".688" style="stop-color:#dbdbdb"/><stop offset=".914" style="stop-color:silver"/><stop offset="1" style="stop-color:#b3b3b3"/></linearGradient><path fill="url(#SVGID_4_)" d="M51.276,55.881H8.716c-3.705,0-6.72-2.909-6.72-6.485V8.608c0-3.578,3.015-6.487,6.72-6.487h42.561 c3.705,0,6.72,2.909,6.72,6.487v40.787C57.996,52.972,54.981,55.881,51.276,55.881z M8.716,4.36c-2.47,0-4.479,1.906-4.479,4.248 v40.787c0,2.34,2.01,4.245,4.479,4.245h42.561c2.47,0,4.479-1.905,4.479-4.245V8.608c0-2.342-2.01-4.248-4.479-4.248H8.716z"/><path fill="#FFF" d="M17.028,16.11c0.661-1.162,1.419-1.98,1.688-1.826l14.716,8.399c0.881,0.647,0.695,1.646,0.033,2.807l0,0 c-0.665,1.163-1.486,1.831-2.354,1.446l-14.797-8.444C16.047,18.34,16.363,17.273,17.028,16.11L17.028,16.11z"/><g><g><path fill="#FFF" d="M46.419,27.302c0,0-0.314-2.668-9.368-8.071l-7.171-7.156c-0.111-0.11-0.51,0.106-0.891,0.489 c-0.382,0.383-1.143,1.325-1.031,1.437l0.429,0.428l-2.018,2.057l7.462,4.294c1.311,0.593,1.941,2.053,1.941,3.541 c0,2.323-1.884,4.207-4.207,4.207c-1.142,0-2.241-0.332-3.145-0.891l-8.535-4.545l-5.668,5.776l-0.465-0.464 c-0.112-0.112-0.521,0.119-0.914,0.51c-0.393,0.396-0.621,0.803-0.509,0.915l16.133,16.101c0.112,0.111,0.521-0.117,0.914-0.51 c0.394-0.394,0.621-0.804,0.51-0.915l-0.314-0.313L43.71,30.009c0.228,2.125-3.391,8.265,1.216,8.689 c3.669,0.175,1.83-2.584,2.669-5.854C48.104,30.478,46.419,27.302,46.419,27.302z"/></g></g></g></g><g id="unpress_states"><g id="DrawingToolsButtonsDefault"><g><linearGradient id="SVGID_6_" x1="29.996" x2="29.996" y1="3.801" y2="55.514" gradientUnits="userSpaceOnUse"><stop offset=".357" style="stop-color:#fff"/><stop offset=".518" style="stop-color:#fbfbfb"/><stop offset=".66" style="stop-color:#f1f1f1"/><stop offset=".795" style="stop-color:#dfdfdf"/><stop offset=".925" style="stop-color:#c5c5c5"/><stop offset="1" style="stop-color:#b3b3b3"/></linearGradient><path fill="url(#SVGID_6_)" d="M56.876,8.608c0-2.966-2.507-5.367-5.6-5.367H8.716c-3.093,0-5.6,2.401-5.6,5.367v40.787 c0,2.964,2.507,5.365,5.6,5.365h42.561c3.093,0,5.6-2.401,5.6-5.365V8.608z"/><linearGradient id="SVGID_8_" x1="29.996" x2="29.996" y1="55.881" y2="2.862" gradientUnits="userSpaceOnUse"><stop offset="0" style="stop-color:#fff"/><stop offset=".231" style="stop-color:#fbfbfb"/><stop offset=".46" style="stop-color:#efefef"/><stop offset=".688" style="stop-color:#dbdbdb"/><stop offset=".914" style="stop-color:silver"/><stop offset="1" style="stop-color:#b3b3b3"/></linearGradient><path fill="url(#SVGID_8_)" d="M51.276,55.881H8.716c-3.705,0-6.72-2.909-6.72-6.485V8.608c0-3.578,3.015-6.487,6.72-6.487 h42.561c3.705,0,6.72,2.909,6.72,6.487v40.787C57.996,52.972,54.981,55.881,51.276,55.881z M8.716,4.36 c-2.47,0-4.479,1.906-4.479,4.248v40.787c0,2.34,2.01,4.245,4.479,4.245h42.561c2.47,0,4.479-1.905,4.479-4.245V8.608 c0-2.342-2.01-4.248-4.479-4.248H8.716z"/><g><g><path fill="#606060" d="M46.419,27.302c0,0-0.314-2.669-9.369-8.072l0.007,0.006l-7.177-7.161 c-0.111-0.11-0.51,0.106-0.891,0.489c-0.382,0.383-1.143,1.325-1.031,1.437l0.429,0.428L14.218,28.867l-0.465-0.464 c-0.112-0.112-0.521,0.119-0.914,0.51c-0.393,0.396-0.621,0.803-0.509,0.915l16.133,16.101c0.112,0.111,0.521-0.117,0.914-0.51 c0.394-0.394,0.621-0.804,0.51-0.915l-0.314-0.313L43.71,30.009c0.228,2.125-3.391,8.265,1.216,8.689 c3.669,0.175,1.83-2.584,2.669-5.854C48.104,30.478,46.419,27.302,46.419,27.302z M31.565,28.526 c-2.323,0-4.206-1.884-4.206-4.207c0-2.322,1.883-4.206,4.206-4.206s4.207,1.884,4.207,4.206 C35.772,26.643,33.889,28.526,31.565,28.526z"/></g></g><path fill="#FFF" stroke="#606060" stroke-miterlimit="10" stroke-width="1.12" d="M17.028,16.11 c0.661-1.162,1.419-1.98,1.688-1.826l14.866,8.484c0.753,0.527,0.545,1.561-0.117,2.722l0,0 c-0.665,1.163-1.729,1.741-2.434,1.401l-14.717-8.399C16.047,18.34,16.363,17.273,17.028,16.11L17.028,16.11z"/></g></g></g></svg>