<svg xmlns="http://www.w3.org/2000/svg" xmlns:xlink="http://www.w3.org/1999/xlink" width="60" height="58" x="0" y="0" enable-background="new 0 0 60 58" version="1.1" viewBox="0 0 60 58" xml:space="preserve"><g id="Pressed_states" display="none"><g id="DrawingToolsButtonsTaped" display="inline"><g><g><g><path fill="#FA0" d="M56.88,8.604c0-2.965-2.507-5.365-5.6-5.365H8.72c-3.093,0-5.6,2.4-5.6,5.365v40.789 c0,2.963,2.507,5.365,5.6,5.365h42.56c3.093,0,5.6-2.402,5.6-5.365V8.604z"/></g><defs><filter id="Adobe_OpacityMaskFilter" width="53.76" height="51.52" x="3.12" y="3.239" filterUnits="userSpaceOnUse"><feColorMatrix color-interpolation-filters="sRGB" result="source" type="matrix" values="-1 0 0 0 1 0 -1 0 0 1 0 0 -1 0 1 0 0 0 1 0"/></filter></defs><mask id="SVGID_2_" width="53.76" height="51.52" x="3.12" y="3.239" maskUnits="userSpaceOnUse"><g filter="url(#Adobe_OpacityMaskFilter)"><image width="58" height="57" overflow="visible" transform="matrix(1 0 0 1 1 0.6885)" xlink:href="A0235801.jpg"/></g></mask><g mask="url(#SVGID_2_)" opacity=".31"><path d="M56.88,8.604c0-2.965-2.507-5.365-5.6-5.365H8.72c-3.093,0-5.6,2.4-5.6,5.365v40.789c0,2.963,2.507,5.365,5.6,5.365 h42.56c3.093,0,5.6-2.402,5.6-5.365V8.604z"/></g></g><linearGradient id="SVGID_4_" x1="30" x2="30" y1="55.878" y2="2.859" gradientUnits="userSpaceOnUse"><stop offset="0" style="stop-color:#fff"/><stop offset=".231" style="stop-color:#fbfbfb"/><stop offset=".46" style="stop-color:#efefef"/><stop offset=".688" style="stop-color:#dbdbdb"/><stop offset=".914" style="stop-color:silver"/><stop offset="1" style="stop-color:#b3b3b3"/></linearGradient><path fill="url(#SVGID_4_)" d="M51.28,55.878H8.72C5.015,55.878,2,52.97,2,49.394V8.604c0-3.576,3.015-6.486,6.72-6.486h42.56 c3.706,0,6.72,2.91,6.72,6.486v40.789C58,52.97,54.986,55.878,51.28,55.878z M8.72,4.358c-2.47,0-4.48,1.906-4.48,4.246v40.789 c0,2.34,2.01,4.244,4.48,4.244h42.56c2.47,0,4.479-1.904,4.479-4.244V8.604c0-2.34-2.01-4.246-4.479-4.246H8.72z"/><path fill="#FFF" d="M14.925,10.229l2.361,4.5c0,0,0.756,1.59,2.615,1.279c1.86-0.313,5.165-0.863,5.165-0.863l-4.488,2.652 c0,0-1.685,0.693-1.38,2.752c0.3,2.057,0.675,4.6,0.675,4.6s-1.305-2.295-2.231-3.98c-0.926-1.686-2.81-1.467-2.81-1.467 l-5.1,0.529c0,0,2.939-1.51,4.523-2.342c1.58-0.828,1.362-2.797,1.362-2.797L14.925,10.229z"/><path fill="none" d="M31.191,19.218c-5.533,0-10.034,4.5-10.034,10.035c0,5.531,4.5,10.033,10.034,10.033 s10.034-4.502,10.034-10.033C41.226,23.718,36.725,19.218,31.191,19.218z M31.191,35.927c-3.68,0-6.674-2.994-6.674-6.674 c0-0.289,0.024-0.572,0.061-0.852c-0.169-0.367-0.269-0.771-0.269-1.201c0-1.412,1.016-2.588,2.356-2.84 c1.191-1.102,2.778-1.781,4.525-1.781c3.68,0,6.674,2.992,6.674,6.674C37.866,32.933,34.872,35.927,31.191,35.927z"/><path fill="#FFF" stroke="#FFF" stroke-miterlimit="10" stroke-width=".56" d="M31.191,22.579 c-1.747,0-3.334,0.68-4.525,1.781c0.174-0.031,0.353-0.055,0.536-0.055c1.597,0,2.893,1.299,2.893,2.895 c0,1.598-1.296,2.893-2.893,2.893c-1.167,0-2.167-0.695-2.624-1.691c-0.036,0.279-0.061,0.563-0.061,0.852 c0,3.68,2.994,6.674,6.674,6.674s6.674-2.994,6.674-6.674C37.866,25.571,34.872,22.579,31.191,22.579z"/><path fill="#FFF" stroke="#FFF" stroke-miterlimit="10" stroke-width=".56" d="M44.84,16.571v-1.273 c0-0.938-1.072-1.699-2.395-1.699h-3.89c-1.322,0-2.676,0.762-2.676,1.699v1.102H17.943c-0.973,0-2.783,0.631-2.783,2.779v21.877 c0,2.1,1.811,2.783,2.783,2.783h25.794c0.972,0,2.783-0.537,2.783-2.783V19.179C46.52,17.552,45.683,16.851,44.84,16.571z M31.191,39.286c-5.533,0-10.034-4.502-10.034-10.033c0-5.535,4.5-10.035,10.034-10.035s10.034,4.5,10.034,10.035 C41.226,34.784,36.725,39.286,31.191,39.286z"/></g></g></g><g id="unpress_states"><g id="DrawingToolsButtonsDefault"><g><linearGradient id="SVGID_6_" x1="30" x2="30" y1="3.797" y2="55.513" gradientUnits="userSpaceOnUse"><stop offset=".357" style="stop-color:#fff"/><stop offset=".518" style="stop-color:#fbfbfb"/><stop offset=".66" style="stop-color:#f1f1f1"/><stop offset=".795" style="stop-color:#dfdfdf"/><stop offset=".925" style="stop-color:#c5c5c5"/><stop offset="1" style="stop-color:#b3b3b3"/></linearGradient><path fill="url(#SVGID_6_)" d="M56.88,8.604c0-2.963-2.507-5.367-5.6-5.367H8.72c-3.093,0-5.6,2.404-5.6,5.367v40.787 c0,2.965,2.507,5.367,5.6,5.367h42.56c3.093,0,5.6-2.402,5.6-5.367V8.604z"/><linearGradient id="SVGID_8_" x1="30" x2="30" y1="55.878" y2="2.859" gradientUnits="userSpaceOnUse"><stop offset="0" style="stop-color:#fff"/><stop offset=".231" style="stop-color:#fbfbfb"/><stop offset=".46" style="stop-color:#efefef"/><stop offset=".688" style="stop-color:#dbdbdb"/><stop offset=".914" style="stop-color:silver"/><stop offset="1" style="stop-color:#b3b3b3"/></linearGradient><path fill="url(#SVGID_8_)" d="M51.28,55.878H8.72C5.015,55.878,2,52.97,2,49.392V8.604c0-3.576,3.015-6.486,6.72-6.486h42.56 c3.706,0,6.72,2.91,6.72,6.486v40.787C58,52.97,54.986,55.878,51.28,55.878z M8.72,4.358c-2.47,0-4.48,1.904-4.48,4.246v40.787 c0,2.342,2.01,4.246,4.48,4.246h42.56c2.47,0,4.479-1.904,4.479-4.246V8.604c0-2.342-2.01-4.246-4.479-4.246H8.72z"/><path fill="#606060" stroke="#606060" stroke-miterlimit="10" stroke-width=".56" d="M46.52,18.62 c0-2.395-1.811-2.781-2.783-2.781H17.943c-0.973,0-2.783,0.633-2.783,2.781v21.875c0,2.102,1.811,2.783,2.783,2.783h25.794 c0.972,0,2.783-0.535,2.783-2.783V18.62z"/><circle cx="31.192" cy="28.692" r="8.354" fill="none" stroke="#FFF" stroke-miterlimit="10" stroke-width="3.36"/><path fill="#606060" stroke="#606060" stroke-miterlimit="10" stroke-width=".56" d="M44.84,14.737 c0-0.938-1.072-1.699-2.395-1.699h-3.89c-1.322,0-2.676,0.762-2.676,1.699v2.762c0,0.938,1.354,1.699,2.676,1.699h3.89 c1.322,0,2.395-0.762,2.395-1.699V14.737z"/><circle cx="28.322" cy="26.64" r="2.893" fill="#FFF"/></g></g></g></svg>